<svg width="880" height="560" viewBox="0 0 880 560" fill="none" xmlns="http://www.w3.org/2000/svg">
  <defs>
    <linearGradient id="bg" x1="90" y1="40" x2="790" y2="520" gradientUnits="userSpaceOnUse">
      <stop stop-color="#FFF7EC"/>
      <stop offset="1" stop-color="#F4E7D7"/>
    </linearGradient>
    <linearGradient id="signal" x1="252" y1="154" x2="630" y2="394" gradientUnits="userSpaceOnUse">
      <stop stop-color="#1D6B62"/>
      <stop offset="1" stop-color="#B44F2A"/>
    </linearGradient>
  </defs>
  <rect x="20" y="20" width="840" height="520" rx="36" fill="url(#bg)"/>
  <circle cx="140" cy="452" r="84" fill="#E4F1EF"/>
  <circle cx="762" cy="108" r="70" fill="#F7DDCB"/>

  <rect x="78" y="120" width="180" height="88" rx="18" fill="#FFFDF9" stroke="#D7C8B7"/>
  <rect x="78" y="234" width="180" height="88" rx="18" fill="#FFFDF9" stroke="#D7C8B7"/>
  <rect x="78" y="348" width="180" height="88" rx="18" fill="#FFFDF9" stroke="#D7C8B7"/>

  <text x="106" y="156" fill="#B44F2A" font-family="Arial, sans-serif" font-size="15" font-weight="700">PDF</text>
  <text x="106" y="270" fill="#B44F2A" font-family="Arial, sans-serif" font-size="15" font-weight="700">URL</text>
  <text x="106" y="384" fill="#B44F2A" font-family="Arial, sans-serif" font-size="15" font-weight="700">MD / TXT</text>

  <rect x="108" y="170" width="116" height="8" rx="4" fill="#E3D5C5"/>
  <rect x="108" y="186" width="92" height="8" rx="4" fill="#E3D5C5"/>
  <rect x="108" y="284" width="116" height="8" rx="4" fill="#E3D5C5"/>
  <rect x="108" y="300" width="98" height="8" rx="4" fill="#E3D5C5"/>
  <rect x="108" y="398" width="116" height="8" rx="4" fill="#E3D5C5"/>
  <rect x="108" y="414" width="88" height="8" rx="4" fill="#E3D5C5"/>

  <path d="M292 164C372 164 382 150 430 150C489 150 526 190 580 190" stroke="url(#signal)" stroke-width="8" stroke-linecap="round"/>
  <path d="M292 278C372 278 390 256 430 256C495 256 526 300 580 300" stroke="url(#signal)" stroke-width="8" stroke-linecap="round"/>
  <path d="M292 392C372 392 388 372 430 372C495 372 522 414 580 414" stroke="url(#signal)" stroke-width="8" stroke-linecap="round"/>

  <rect x="346" y="208" width="176" height="138" rx="28" fill="#FFFDF9" stroke="#1D6B62" stroke-width="2"/>
  <text x="376" y="248" fill="#1D6B62" font-family="Arial, sans-serif" font-size="15" font-weight="700">TRACE CORE</text>
  <rect x="376" y="272" width="110" height="10" rx="5" fill="#D9EEE9"/>
  <rect x="376" y="292" width="84" height="10" rx="5" fill="#D9EEE9"/>
  <rect x="376" y="312" width="120" height="10" rx="5" fill="#F4D9CE"/>

  <rect x="590" y="120" width="206" height="88" rx="18" fill="#FFFDF9" stroke="#D7C8B7"/>
  <rect x="590" y="234" width="206" height="88" rx="18" fill="#FFFDF9" stroke="#D7C8B7"/>
  <rect x="590" y="348" width="206" height="88" rx="18" fill="#FFFDF9" stroke="#D7C8B7"/>

  <text x="616" y="156" fill="#B44F2A" font-family="Arial, sans-serif" font-size="15" font-weight="700">BRIEF</text>
  <text x="616" y="270" fill="#B44F2A" font-family="Arial, sans-serif" font-size="15" font-weight="700">MATRIX</text>
  <text x="616" y="384" fill="#B44F2A" font-family="Arial, sans-serif" font-size="15" font-weight="700">SLIDES</text>

  <rect x="616" y="170" width="126" height="8" rx="4" fill="#E3D5C5"/>
  <rect x="616" y="186" width="92" height="8" rx="4" fill="#E3D5C5"/>
  <rect x="616" y="284" width="146" height="8" rx="4" fill="#E3D5C5"/>
  <rect x="616" y="300" width="122" height="8" rx="4" fill="#E3D5C5"/>
  <rect x="616" y="398" width="130" height="8" rx="4" fill="#E3D5C5"/>
  <rect x="616" y="414" width="108" height="8" rx="4" fill="#E3D5C5"/>
</svg>
