<svg width="880" height="560" viewBox="0 0 880 560" fill="none" xmlns="http://www.w3.org/2000/svg">
  <defs>
    <linearGradient id="bg" x1="90" y1="40" x2="790" y2="520" gradientUnits="userSpaceOnUse">
      <stop stop-color="#FFF7EC"/>
      <stop offset="1" stop-color="#F4E7D7"/>
    </linearGradient>
    <linearGradient id="signal" x1="250" y1="150" x2="640" y2="360" gradientUnits="userSpaceOnUse">
      <stop stop-color="#1D6B62"/>
      <stop offset="1" stop-color="#B44F2A"/>
    </linearGradient>
  </defs>
  <rect x="20" y="20" width="840" height="520" rx="36" fill="url(#bg)"/>
  <circle cx="766" cy="112" r="72" fill="#F7DDCB"/>
  <circle cx="144" cy="448" r="88" fill="#E4F1EF"/>

  <text x="88" y="94" fill="#1F1B16" font-family="Georgia, serif" font-size="28" font-weight="700">Messy sources</text>
  <text x="88" y="126" fill="#6D6458" font-family="Georgia, serif" font-size="20">杂乱资料</text>

  <rect x="78" y="154" width="182" height="94" rx="20" fill="#FFFDF9" stroke="#D7C8B7"/>
  <text x="102" y="191" fill="#B44F2A" font-family="Arial, sans-serif" font-size="15" font-weight="700">PDF</text>
  <text x="102" y="220" fill="#1F1B16" font-family="Arial, sans-serif" font-size="19">Paper notes, findings,</text>
  <text x="102" y="244" fill="#1F1B16" font-family="Arial, sans-serif" font-size="19">methods, limitations</text>

  <rect x="78" y="270" width="182" height="94" rx="20" fill="#FFFDF9" stroke="#D7C8B7"/>
  <text x="102" y="307" fill="#B44F2A" font-family="Arial, sans-serif" font-size="15" font-weight="700">URL</text>
  <text x="102" y="336" fill="#1F1B16" font-family="Arial, sans-serif" font-size="19">Playbooks, blogs,</text>
  <text x="102" y="360" fill="#1F1B16" font-family="Arial, sans-serif" font-size="19">context and guidance</text>

  <rect x="78" y="386" width="182" height="94" rx="20" fill="#FFFDF9" stroke="#D7C8B7"/>
  <text x="102" y="423" fill="#B44F2A" font-family="Arial, sans-serif" font-size="15" font-weight="700">Notes folder</text>
  <text x="102" y="452" fill="#1F1B16" font-family="Arial, sans-serif" font-size="19">Questions, framing,</text>
  <text x="102" y="476" fill="#1F1B16" font-family="Arial, sans-serif" font-size="19">speaker intent</text>

  <path d="M300 202C372 202 382 166 438 166C497 166 514 210 584 210" stroke="url(#signal)" stroke-width="8" stroke-linecap="round"/>
  <path d="M300 318C372 318 386 280 438 280C497 280 526 324 584 324" stroke="url(#signal)" stroke-width="8" stroke-linecap="round"/>
  <path d="M300 434C372 434 388 392 438 392C497 392 520 438 584 438" stroke="url(#signal)" stroke-width="8" stroke-linecap="round"/>

  <rect x="346" y="216" width="170" height="120" rx="28" fill="#FFFDF9" stroke="#1D6B62" stroke-width="2"/>
  <text x="377" y="258" fill="#1D6B62" font-family="Arial, sans-serif" font-size="15" font-weight="700">Trace core</text>
  <text x="377" y="287" fill="#1F1B16" font-family="Arial, sans-serif" font-size="18">chunk</text>
  <text x="435" y="287" fill="#6D6458" font-family="Arial, sans-serif" font-size="18">→</text>
  <text x="455" y="287" fill="#1F1B16" font-family="Arial, sans-serif" font-size="18">evidence</text>
  <text x="377" y="315" fill="#1F1B16" font-family="Arial, sans-serif" font-size="18">→ claim → render</text>
  <text x="377" y="348" fill="#6D6458" font-family="Arial, sans-serif" font-size="16">可回链，可解释，可演示</text>

  <text x="598" y="94" fill="#1F1B16" font-family="Georgia, serif" font-size="28" font-weight="700">Cited deliverables</text>
  <text x="598" y="126" fill="#6D6458" font-family="Georgia, serif" font-size="20">可交付成果</text>

  <rect x="590" y="154" width="208" height="102" rx="22" fill="#FFFDF9" stroke="#D7C8B7"/>
  <text x="616" y="188" fill="#B44F2A" font-family="Arial, sans-serif" font-size="14" font-weight="700">CITED BRIEF</text>
  <text x="616" y="216" fill="#1F1B16" font-family="Arial, sans-serif" font-size="18">Key findings with</text>
  <text x="616" y="240" fill="#1F1B16" font-family="Arial, sans-serif" font-size="18">source-backed claims</text>

  <rect x="590" y="278" width="208" height="102" rx="22" fill="#FFFDF9" stroke="#D7C8B7"/>
  <text x="616" y="312" fill="#B44F2A" font-family="Arial, sans-serif" font-size="14" font-weight="700">LITERATURE MATRIX</text>
  <text x="616" y="340" fill="#1F1B16" font-family="Arial, sans-serif" font-size="18">Compare evidence,</text>
  <text x="616" y="364" fill="#1F1B16" font-family="Arial, sans-serif" font-size="18">methods, relevance</text>

  <rect x="590" y="402" width="208" height="102" rx="22" fill="#FFFDF9" stroke="#D7C8B7"/>
  <text x="616" y="436" fill="#B44F2A" font-family="Arial, sans-serif" font-size="14" font-weight="700">SLIDES</text>
  <text x="616" y="464" fill="#1F1B16" font-family="Arial, sans-serif" font-size="18">Outline, bullets, notes,</text>
  <text x="616" y="488" fill="#1F1B16" font-family="Arial, sans-serif" font-size="18">evidence links</text>
</svg>
